#define logo_width 64
#define logo_height 55
static char logo_bits[] = {
   0x00, 0x00, 0x00, 0x00, 0x00, 0x00, 0x00, 0x00, 0x00, 0x00, 0x00, 0x00,
   0x00, 0x00, 0x00, 0x00, 0x00, 0x00, 0x00, 0x00, 0x00, 0x00, 0x00, 0x00,
   0x00, 0x00, 0x00, 0x00, 0x00, 0x00, 0x00, 0x00, 0x00, 0x00, 0x00, 0x00,
   0x00, 0x00, 0x00, 0x00, 0x00, 0x00, 0x00, 0x00, 0x00, 0x00, 0x00, 0x00,
   0x00, 0x00, 0x80, 0xff, 0x0f, 0x00, 0x00, 0x00, 0x00, 0x00, 0x80, 0xff,
   0x3f, 0x00, 0x00, 0x00, 0x00, 0x00, 0x80, 0xff, 0x7f, 0x00, 0x00, 0x00,
   0x00, 0x00, 0xc0, 0x03, 0x7c, 0x00, 0x00, 0x00, 0x00, 0x00, 0xc0, 0x03,
   0xf0, 0x00, 0x00, 0x00, 0x00, 0x00, 0xc0, 0x01, 0x70, 0x00, 0x00, 0x00,
   0x00, 0x00, 0xc0, 0x01, 0xf0, 0x00, 0x00, 0x00, 0x00, 0x00, 0xe0, 0x01,
   0x70, 0x00, 0x00, 0x00, 0x00, 0x00, 0xe0, 0x01, 0x78, 0x00, 0x00, 0x00,
   0x00, 0x00, 0xe0, 0x00, 0x78, 0x00, 0x00, 0x00, 0x00, 0x00, 0xe0, 0x00,
   0x3c, 0x00, 0x00, 0x00, 0x00, 0x00, 0xe0, 0xff, 0x1f, 0x00, 0x00, 0x00,
   0x00, 0x00, 0xf0, 0xff, 0x0f, 0x00, 0x00, 0x00, 0x00, 0x00, 0xf0, 0xff,
   0x83, 0x83, 0x18, 0x1e, 0x00, 0x00, 0x70, 0x00, 0xe0, 0x8f, 0xbf, 0x7f,
   0x00, 0x00, 0x70, 0x00, 0x30, 0x8e, 0x9f, 0x73, 0x00, 0x00, 0x78, 0x00,
   0x18, 0x8c, 0xc3, 0x60, 0x00, 0x00, 0x78, 0x00, 0x00, 0x8c, 0x01, 0x60,
   0x00, 0x00, 0x78, 0x00, 0xe0, 0x8f, 0x01, 0x7f, 0x00, 0x00, 0x38, 0x00,
   0xf8, 0x8f, 0xc1, 0x3f, 0x00, 0x00, 0x38, 0x00, 0x1c, 0x86, 0xe1, 0x30,
   0x00, 0x00, 0x38, 0x00, 0x0c, 0xc6, 0x60, 0x30, 0x00, 0x00, 0x38, 0x00,
   0x0c, 0xc7, 0x70, 0x38, 0x00, 0x00, 0x3c, 0x00, 0xfc, 0xc7, 0xf0, 0x7f,
   0x00, 0x00, 0x1c, 0x00, 0x78, 0xce, 0xe0, 0x33, 0x00, 0x00, 0x1c, 0x00,
   0x00, 0x00, 0x00, 0x00, 0x80, 0xff, 0x1f, 0x00, 0x00, 0x00, 0x00, 0x00,
   0xe0, 0xff, 0x1f, 0x00, 0x00, 0x00, 0x00, 0x00, 0xf0, 0xff, 0x0f, 0x41,
   0xe4, 0xa3, 0x01, 0x00, 0xf8, 0x00, 0xce, 0xc1, 0xfc, 0x23, 0x01, 0x00,
   0x38, 0x00, 0x8e, 0xe1, 0x1e, 0x07, 0x00, 0x00, 0x3c, 0x00, 0x8e, 0x61,
   0x0e, 0x03, 0x00, 0x00, 0x1c, 0x00, 0x8f, 0x31, 0x06, 0x03, 0x00, 0x00,
   0x1c, 0x00, 0x87, 0x31, 0x06, 0x03, 0x00, 0x00, 0x1c, 0x00, 0x87, 0x19,
   0x06, 0x03, 0x00, 0x00, 0x1c, 0x00, 0x87, 0x19, 0x07, 0x03, 0x00, 0x00,
   0x7c, 0x80, 0x87, 0x0f, 0x07, 0x03, 0x00, 0x00, 0xf8, 0xff, 0x87, 0x0f,
   0x83, 0x01, 0x00, 0x00, 0xf8, 0xff, 0x03, 0x07, 0x83, 0x01, 0x00, 0x00,
   0xe0, 0xff, 0x03, 0x03, 0x83, 0x01, 0x00, 0x00, 0x00, 0x00, 0x00, 0x03,
   0x00, 0x00, 0x00, 0x00, 0x00, 0x00, 0x80, 0x01, 0x00, 0x00, 0x00, 0x00,
   0x00, 0x00, 0xf0, 0x00, 0x00, 0x00, 0x00, 0x00, 0x00, 0x00, 0x70, 0x00,
   0x00, 0x00, 0x00, 0x00, 0x00, 0x00, 0x00, 0x00, 0x00, 0x00, 0x00, 0x00,
   0x00, 0x00, 0x00, 0x00, 0x00, 0x00, 0x00, 0x00, 0x00, 0x00, 0x00, 0x00,
   0x00, 0x00, 0x00, 0x00, 0x00, 0x00, 0x00, 0x00, 0x00, 0x00, 0x00, 0x00,
   0x00, 0x00, 0x00, 0x00, 0x00, 0x00, 0x00, 0x00};
