#define logo_width 75
#define logo_height 67
static char logo_bits[] = {
 0x00,0x00,0x00,0x00,0x00,0x00,0x00,0x00,0x00,0xf8,0x00,0x00,0x00,0x00,0x00,
 0x00,0x00,0x00,0x00,0xf8,0x00,0x00,0x00,0x00,0x00,0x00,0x00,0x00,0x00,0xf8,
 0x00,0x00,0x00,0x00,0x00,0x00,0x00,0x00,0x00,0xf8,0x00,0x00,0x00,0x00,0x00,
 0x00,0x00,0x00,0x00,0xf8,0x00,0x00,0x00,0xf8,0xff,0x03,0x00,0x00,0x00,0xf8,
 0x00,0x00,0x00,0xf8,0xff,0x0f,0x00,0x00,0x00,0xf8,0x00,0x00,0x00,0xf8,0xff,
 0x1f,0x00,0x00,0x00,0xf8,0x00,0x00,0x00,0xf8,0xff,0x3f,0x00,0x00,0x00,0xf8,
 0x00,0x00,0x00,0xf8,0xff,0x3f,0x00,0x00,0x00,0xf8,0x00,0x00,0x00,0x38,0x00,
 0x7c,0x00,0x00,0x00,0xf8,0x00,0x00,0x00,0x3c,0x00,0x78,0x00,0x00,0x00,0xf8,
 0x00,0x00,0x00,0x3c,0x00,0x78,0x00,0x00,0x00,0xf8,0x00,0x00,0x00,0x3c,0x00,
 0x78,0x00,0x00,0x00,0xf8,0x00,0x00,0x00,0x3c,0x00,0x78,0x00,0x00,0x00,0xf8,
 0x00,0x00,0x00,0x3c,0x00,0x78,0x00,0x00,0x00,0xf8,0x00,0x00,0x00,0x1e,0x00,
 0x78,0x00,0x00,0x00,0xf8,0x00,0x00,0x00,0x1e,0x00,0x38,0x00,0x00,0x00,0xf8,
 0x00,0x00,0x00,0x1e,0x00,0x3c,0x00,0x00,0x00,0xf8,0x00,0x00,0x00,0x1e,0x00,
 0x3e,0x00,0x00,0x00,0xf8,0x00,0x00,0x00,0x1e,0x00,0x1e,0x00,0x00,0x00,0xf8,
 0x00,0x00,0x00,0x0e,0x80,0x1f,0x00,0x00,0x00,0xf8,0x00,0x00,0x00,0xfe,0xff,
 0x0f,0x00,0x00,0x00,0xf8,0x00,0x00,0x00,0xff,0xff,0x07,0x00,0x00,0x00,0xf8,
 0x00,0x00,0x00,0xff,0xff,0x03,0x00,0x00,0x00,0xf8,0x00,0x00,0x00,0xff,0xff,
 0x00,0x00,0x00,0x00,0xf8,0x00,0x00,0x00,0x0f,0x00,0xe0,0x07,0x3b,0xfc,0xf8,
 0x00,0x00,0x00,0x0f,0x00,0xf8,0x0f,0x3f,0xff,0xf9,0x00,0x00,0x80,0x0f,0x00,
 0x18,0x0c,0x0f,0x83,0xf9,0x00,0x00,0x80,0x07,0x00,0x0c,0x0c,0x83,0x81,0xf9,
 0x00,0x00,0x80,0x07,0x00,0x00,0x8e,0x03,0x80,0xf9,0x00,0x00,0x80,0x07,0x00,
 0x00,0x8e,0x01,0xc0,0xf9,0x00,0x00,0x80,0x07,0x00,0xf8,0x87,0x01,0xff,0xf8,
 0x00,0x00,0x80,0x07,0x00,0xfc,0x86,0x81,0xdf,0xf8,0x00,0x00,0xc0,0x07,0x00,
 0x0e,0x86,0xc1,0xc1,0xf8,0x00,0x00,0xc0,0x07,0x00,0x06,0xc6,0xc1,0xc0,0xf8,
 0x00,0x00,0xc0,0x03,0x00,0x03,0xc7,0x60,0xe0,0xf8,0x00,0xf0,0xff,0x03,0x00,
 0x03,0xc7,0x60,0xe0,0xf8,0x00,0xfe,0xff,0x03,0x00,0xc7,0xc3,0xe0,0x78,0xf8,
 0x00,0xff,0xff,0x03,0x00,0xfe,0xc7,0xc0,0xff,0xf8,0x80,0xff,0xff,0x03,0x00,
 0x3e,0xc6,0xc0,0xc7,0xf8,0xc0,0x0f,0xc0,0x01,0x00,0x00,0x00,0x00,0x00,0xf8,
 0xe0,0x03,0xc0,0x01,0x00,0x00,0x00,0x00,0x00,0xf8,0xe0,0x01,0xe0,0x01,0x00,
 0x00,0x00,0x00,0x00,0xf8,0xf0,0x00,0xe0,0x01,0x00,0x00,0x00,0x00,0x00,0xf8,
 0xf0,0x00,0xe0,0x39,0xe0,0xcc,0x07,0x00,0x00,0xf8,0x70,0x00,0xe0,0x39,0x70,
 0xfe,0x0f,0x00,0x00,0xf8,0x78,0x00,0xe0,0x38,0x30,0x1e,0x0e,0x00,0x00,0xf8,
 0x78,0x00,0xf0,0x30,0x38,0x0e,0x0c,0x00,0x00,0xf8,0x78,0x00,0xf0,0x30,0x18,
 0x06,0x0c,0x00,0x00,0xf8,0x78,0x00,0xf0,0x30,0x0c,0x06,0x0e,0x00,0x00,0xf8,
 0x78,0x00,0xf0,0x30,0x0e,0x07,0x06,0x00,0x00,0xf8,0xf8,0x00,0x70,0x30,0x06,
 0x03,0x06,0x00,0x00,0xf8,0xf8,0x01,0x70,0x70,0x07,0x03,0x06,0x00,0x00,0xf8,
 0xf0,0xff,0x7f,0xf0,0x03,0x03,0x07,0x00,0x00,0xf8,0xf0,0xff,0x7f,0xe0,0x81,
 0x03,0x07,0x00,0x00,0xf8,0xe0,0xff,0x7f,0xe0,0x81,0x01,0x03,0x00,0x00,0xf8,
 0x80,0xff,0x7f,0xe0,0x80,0x01,0x03,0x00,0x00,0xf8,0x00,0x00,0x00,0x60,0x00,
 0x00,0x00,0x00,0x00,0xf8,0x00,0x00,0x00,0x70,0x00,0x00,0x00,0x00,0x00,0xf8,
 0x00,0x00,0x00,0x30,0x00,0x00,0x00,0x00,0x00,0xf8,0x00,0x00,0x00,0x1e,0x00,
 0x00,0x00,0x00,0x00,0xf8,0x00,0x00,0x00,0x0f,0x00,0x00,0x00,0x00,0x00,0xf8,
 0x00,0x00,0x00,0x00,0x00,0x00,0x00,0x00,0x00,0xf8,0x00,0x00,0x00,0x00,0x00,
 0x00,0x00,0x00,0x00,0xf8,0x00,0x00,0x00,0x00,0x00,0x00,0x00,0x00,0x00,0xf8,
 0x00,0x00,0x00,0x00,0x00,0x00,0x00,0x00,0x00,0xf8};
